<mxfile host="app.diagrams.net" modified="2021-12-24T08:39:10.838Z" agent="5.0 (Macintosh; Intel Mac OS X 10_15_7) AppleWebKit/605.1.15 (KHTML, like Gecko) Version/14.1.2 Safari/605.1.15" etag="AGbhCBLu4eR1Tb002GqS" version="16.0.3" type="github">
  <diagram id="rwmYI4FFPzJ0HnbALrD0" name="Page-1">
    <mxGraphModel dx="705" dy="738" grid="1" gridSize="10" guides="1" tooltips="1" connect="1" arrows="1" fold="1" page="1" pageScale="1" pageWidth="827" pageHeight="1169" math="0" shadow="0">
      <root>
        <mxCell id="0" />
        <mxCell id="1" parent="0" />
        <mxCell id="Pc3_HM7Slz56_eBDr2_q-14" style="edgeStyle=orthogonalEdgeStyle;rounded=0;orthogonalLoop=1;jettySize=auto;html=1;exitX=1;exitY=0.5;exitDx=0;exitDy=0;entryX=0;entryY=0.5;entryDx=0;entryDy=0;" edge="1" parent="1" source="Pc3_HM7Slz56_eBDr2_q-1" target="Pc3_HM7Slz56_eBDr2_q-7">
          <mxGeometry relative="1" as="geometry" />
        </mxCell>
        <mxCell id="Pc3_HM7Slz56_eBDr2_q-1" value="1.准备模型与训练所需的公开数据集" style="rounded=0;whiteSpace=wrap;html=1;" vertex="1" parent="1">
          <mxGeometry x="80" y="110" width="120" height="60" as="geometry" />
        </mxCell>
        <mxCell id="Pc3_HM7Slz56_eBDr2_q-15" style="edgeStyle=orthogonalEdgeStyle;rounded=0;orthogonalLoop=1;jettySize=auto;html=1;exitX=0.5;exitY=1;exitDx=0;exitDy=0;entryX=0.5;entryY=0;entryDx=0;entryDy=0;" edge="1" parent="1" source="Pc3_HM7Slz56_eBDr2_q-2" target="Pc3_HM7Slz56_eBDr2_q-3">
          <mxGeometry relative="1" as="geometry" />
        </mxCell>
        <mxCell id="Pc3_HM7Slz56_eBDr2_q-2" value="2.相机采集现场图片" style="rounded=0;whiteSpace=wrap;html=1;" vertex="1" parent="1">
          <mxGeometry x="80" y="220" width="120" height="60" as="geometry" />
        </mxCell>
        <mxCell id="Pc3_HM7Slz56_eBDr2_q-16" style="edgeStyle=orthogonalEdgeStyle;rounded=0;orthogonalLoop=1;jettySize=auto;html=1;exitX=0.5;exitY=1;exitDx=0;exitDy=0;entryX=0.5;entryY=0;entryDx=0;entryDy=0;" edge="1" parent="1" source="Pc3_HM7Slz56_eBDr2_q-3" target="Pc3_HM7Slz56_eBDr2_q-4">
          <mxGeometry relative="1" as="geometry" />
        </mxCell>
        <mxCell id="Pc3_HM7Slz56_eBDr2_q-3" value="3.标注图片上的检测类别信息" style="rounded=0;whiteSpace=wrap;html=1;" vertex="1" parent="1">
          <mxGeometry x="80" y="330" width="120" height="60" as="geometry" />
        </mxCell>
        <mxCell id="Pc3_HM7Slz56_eBDr2_q-17" style="edgeStyle=orthogonalEdgeStyle;rounded=0;orthogonalLoop=1;jettySize=auto;html=1;exitX=1;exitY=0.5;exitDx=0;exitDy=0;entryX=0;entryY=0.5;entryDx=0;entryDy=0;" edge="1" parent="1" source="Pc3_HM7Slz56_eBDr2_q-4" target="Pc3_HM7Slz56_eBDr2_q-8">
          <mxGeometry relative="1" as="geometry">
            <Array as="points">
              <mxPoint x="360" y="450" />
              <mxPoint x="360" y="480" />
            </Array>
          </mxGeometry>
        </mxCell>
        <mxCell id="Pc3_HM7Slz56_eBDr2_q-29" style="edgeStyle=orthogonalEdgeStyle;rounded=0;orthogonalLoop=1;jettySize=auto;html=1;exitX=1;exitY=0.5;exitDx=0;exitDy=0;entryX=0;entryY=0.5;entryDx=0;entryDy=0;" edge="1" parent="1" source="Pc3_HM7Slz56_eBDr2_q-4" target="Pc3_HM7Slz56_eBDr2_q-9">
          <mxGeometry relative="1" as="geometry" />
        </mxCell>
        <mxCell id="Pc3_HM7Slz56_eBDr2_q-4" value="4.制作实际场景垃圾数据集" style="rounded=0;whiteSpace=wrap;html=1;" vertex="1" parent="1">
          <mxGeometry x="80" y="420" width="120" height="60" as="geometry" />
        </mxCell>
        <mxCell id="Pc3_HM7Slz56_eBDr2_q-18" style="edgeStyle=orthogonalEdgeStyle;rounded=0;orthogonalLoop=1;jettySize=auto;html=1;exitX=0.5;exitY=1;exitDx=0;exitDy=0;entryX=0.5;entryY=0;entryDx=0;entryDy=0;" edge="1" parent="1" source="Pc3_HM7Slz56_eBDr2_q-5" target="Pc3_HM7Slz56_eBDr2_q-6">
          <mxGeometry relative="1" as="geometry" />
        </mxCell>
        <mxCell id="Pc3_HM7Slz56_eBDr2_q-5" value="5.搭建垃圾目标分类模型网络结构" style="rounded=0;whiteSpace=wrap;html=1;" vertex="1" parent="1">
          <mxGeometry x="520" y="110" width="120" height="60" as="geometry" />
        </mxCell>
        <mxCell id="Pc3_HM7Slz56_eBDr2_q-19" style="edgeStyle=orthogonalEdgeStyle;rounded=0;orthogonalLoop=1;jettySize=auto;html=1;exitX=0.5;exitY=1;exitDx=0;exitDy=0;entryX=0.5;entryY=0;entryDx=0;entryDy=0;" edge="1" parent="1" source="Pc3_HM7Slz56_eBDr2_q-6" target="Pc3_HM7Slz56_eBDr2_q-7">
          <mxGeometry relative="1" as="geometry" />
        </mxCell>
        <mxCell id="Pc3_HM7Slz56_eBDr2_q-6" value="6.初始化参数" style="rounded=0;whiteSpace=wrap;html=1;" vertex="1" parent="1">
          <mxGeometry x="520" y="230" width="120" height="60" as="geometry" />
        </mxCell>
        <mxCell id="Pc3_HM7Slz56_eBDr2_q-20" style="edgeStyle=orthogonalEdgeStyle;rounded=0;orthogonalLoop=1;jettySize=auto;html=1;exitX=0.5;exitY=1;exitDx=0;exitDy=0;entryX=0.5;entryY=0;entryDx=0;entryDy=0;" edge="1" parent="1" source="Pc3_HM7Slz56_eBDr2_q-7" target="Pc3_HM7Slz56_eBDr2_q-8">
          <mxGeometry relative="1" as="geometry" />
        </mxCell>
        <mxCell id="Pc3_HM7Slz56_eBDr2_q-7" value="7.使用公开数据集预训练" style="rounded=0;whiteSpace=wrap;html=1;" vertex="1" parent="1">
          <mxGeometry x="520" y="350" width="120" height="60" as="geometry" />
        </mxCell>
        <mxCell id="Pc3_HM7Slz56_eBDr2_q-21" style="edgeStyle=orthogonalEdgeStyle;rounded=0;orthogonalLoop=1;jettySize=auto;html=1;exitX=0.5;exitY=1;exitDx=0;exitDy=0;entryX=0.5;entryY=0;entryDx=0;entryDy=0;" edge="1" parent="1" source="Pc3_HM7Slz56_eBDr2_q-8" target="Pc3_HM7Slz56_eBDr2_q-9">
          <mxGeometry relative="1" as="geometry" />
        </mxCell>
        <mxCell id="Pc3_HM7Slz56_eBDr2_q-8" value="8.使用实际场景数据训练" style="rounded=0;whiteSpace=wrap;html=1;" vertex="1" parent="1">
          <mxGeometry x="520" y="450" width="120" height="60" as="geometry" />
        </mxCell>
        <mxCell id="Pc3_HM7Slz56_eBDr2_q-22" style="edgeStyle=orthogonalEdgeStyle;rounded=0;orthogonalLoop=1;jettySize=auto;html=1;exitX=0.5;exitY=1;exitDx=0;exitDy=0;" edge="1" parent="1" source="Pc3_HM7Slz56_eBDr2_q-9" target="Pc3_HM7Slz56_eBDr2_q-10">
          <mxGeometry relative="1" as="geometry" />
        </mxCell>
        <mxCell id="Pc3_HM7Slz56_eBDr2_q-30" value="提供训练好的模型" style="edgeLabel;html=1;align=center;verticalAlign=middle;resizable=0;points=[];" vertex="1" connectable="0" parent="Pc3_HM7Slz56_eBDr2_q-22">
          <mxGeometry x="-0.2" y="-3" relative="1" as="geometry">
            <mxPoint as="offset" />
          </mxGeometry>
        </mxCell>
        <mxCell id="Pc3_HM7Slz56_eBDr2_q-9" value="9.固定分类器，使用实际场景数据集，按类别存储各个检测特征" style="rounded=0;whiteSpace=wrap;html=1;" vertex="1" parent="1">
          <mxGeometry x="520" y="555" width="120" height="60" as="geometry" />
        </mxCell>
        <mxCell id="Pc3_HM7Slz56_eBDr2_q-23" style="edgeStyle=orthogonalEdgeStyle;rounded=0;orthogonalLoop=1;jettySize=auto;html=1;exitX=0.5;exitY=1;exitDx=0;exitDy=0;entryX=0.5;entryY=0;entryDx=0;entryDy=0;" edge="1" parent="1" source="Pc3_HM7Slz56_eBDr2_q-10" target="Pc3_HM7Slz56_eBDr2_q-11">
          <mxGeometry relative="1" as="geometry" />
        </mxCell>
        <mxCell id="Pc3_HM7Slz56_eBDr2_q-10" value="11.垃圾目标检测模型推理垃圾检测框并识别垃圾类别" style="rounded=0;whiteSpace=wrap;html=1;" vertex="1" parent="1">
          <mxGeometry x="520" y="680" width="120" height="60" as="geometry" />
        </mxCell>
        <mxCell id="Pc3_HM7Slz56_eBDr2_q-24" style="edgeStyle=orthogonalEdgeStyle;rounded=0;orthogonalLoop=1;jettySize=auto;html=1;exitX=0.5;exitY=1;exitDx=0;exitDy=0;entryX=0.5;entryY=0;entryDx=0;entryDy=0;" edge="1" parent="1" source="Pc3_HM7Slz56_eBDr2_q-11" target="Pc3_HM7Slz56_eBDr2_q-12">
          <mxGeometry relative="1" as="geometry" />
        </mxCell>
        <mxCell id="Pc3_HM7Slz56_eBDr2_q-11" value="12.根据识别信息定位并选择清理方式" style="rounded=0;whiteSpace=wrap;html=1;" vertex="1" parent="1">
          <mxGeometry x="520" y="800" width="120" height="60" as="geometry" />
        </mxCell>
        <mxCell id="Pc3_HM7Slz56_eBDr2_q-12" value="13.到达位置清理垃圾" style="rounded=0;whiteSpace=wrap;html=1;" vertex="1" parent="1">
          <mxGeometry x="520" y="920" width="120" height="60" as="geometry" />
        </mxCell>
        <mxCell id="Pc3_HM7Slz56_eBDr2_q-25" style="edgeStyle=orthogonalEdgeStyle;rounded=0;orthogonalLoop=1;jettySize=auto;html=1;exitX=1;exitY=0.5;exitDx=0;exitDy=0;entryX=0;entryY=0.5;entryDx=0;entryDy=0;" edge="1" parent="1" source="Pc3_HM7Slz56_eBDr2_q-13" target="Pc3_HM7Slz56_eBDr2_q-10">
          <mxGeometry relative="1" as="geometry" />
        </mxCell>
        <mxCell id="Pc3_HM7Slz56_eBDr2_q-13" value="10.相机采集场景图片" style="rounded=0;whiteSpace=wrap;html=1;" vertex="1" parent="1">
          <mxGeometry x="230" y="680" width="120" height="60" as="geometry" />
        </mxCell>
      </root>
    </mxGraphModel>
  </diagram>
</mxfile>
